<mxfile host="app.diagrams.net" agent="Mozilla/5.0 (Windows NT 10.0; Win64; x64) AppleWebKit/537.36 (KHTML, like Gecko) Chrome/129.0.0.0 Safari/537.36 Edg/129.0.0.0" version="24.7.17">
  <diagram name="第 1 页" id="zFM09eo77ZtbmLLWtQ4I">
    <mxGraphModel dx="1426" dy="793" grid="1" gridSize="10" guides="1" tooltips="1" connect="1" arrows="1" fold="1" page="1" pageScale="1" pageWidth="827" pageHeight="1169" math="0" shadow="0">
      <root>
        <mxCell id="0" />
        <mxCell id="1" parent="0" />
        <mxCell id="j8Nd66jY_dgEr8elScfE-3" value="" style="edgeStyle=orthogonalEdgeStyle;rounded=0;orthogonalLoop=1;jettySize=auto;html=1;" edge="1" parent="1" source="j8Nd66jY_dgEr8elScfE-1" target="j8Nd66jY_dgEr8elScfE-2">
          <mxGeometry relative="1" as="geometry" />
        </mxCell>
        <mxCell id="j8Nd66jY_dgEr8elScfE-1" value="MR Open/Reopen" style="rounded=1;whiteSpace=wrap;html=1;" vertex="1" parent="1">
          <mxGeometry x="250" y="125" width="120" height="60" as="geometry" />
        </mxCell>
        <mxCell id="j8Nd66jY_dgEr8elScfE-5" value="" style="edgeStyle=orthogonalEdgeStyle;rounded=0;orthogonalLoop=1;jettySize=auto;html=1;" edge="1" parent="1" source="j8Nd66jY_dgEr8elScfE-2" target="j8Nd66jY_dgEr8elScfE-4">
          <mxGeometry relative="1" as="geometry" />
        </mxCell>
        <mxCell id="j8Nd66jY_dgEr8elScfE-14" value="Y" style="edgeLabel;html=1;align=center;verticalAlign=middle;resizable=0;points=[];" vertex="1" connectable="0" parent="j8Nd66jY_dgEr8elScfE-5">
          <mxGeometry x="-0.2333" y="2" relative="1" as="geometry">
            <mxPoint as="offset" />
          </mxGeometry>
        </mxCell>
        <mxCell id="j8Nd66jY_dgEr8elScfE-7" value="" style="edgeStyle=orthogonalEdgeStyle;rounded=0;orthogonalLoop=1;jettySize=auto;html=1;" edge="1" parent="1" source="j8Nd66jY_dgEr8elScfE-2" target="j8Nd66jY_dgEr8elScfE-6">
          <mxGeometry relative="1" as="geometry" />
        </mxCell>
        <mxCell id="j8Nd66jY_dgEr8elScfE-15" value="N" style="edgeLabel;html=1;align=center;verticalAlign=middle;resizable=0;points=[];" vertex="1" connectable="0" parent="j8Nd66jY_dgEr8elScfE-7">
          <mxGeometry x="-0.0667" relative="1" as="geometry">
            <mxPoint as="offset" />
          </mxGeometry>
        </mxCell>
        <mxCell id="j8Nd66jY_dgEr8elScfE-2" value="特定分支" style="rhombus;whiteSpace=wrap;html=1;rounded=1;" vertex="1" parent="1">
          <mxGeometry x="270" y="255" width="80" height="80" as="geometry" />
        </mxCell>
        <mxCell id="j8Nd66jY_dgEr8elScfE-11" value="" style="edgeStyle=orthogonalEdgeStyle;rounded=0;orthogonalLoop=1;jettySize=auto;html=1;" edge="1" parent="1" source="j8Nd66jY_dgEr8elScfE-4" target="j8Nd66jY_dgEr8elScfE-10">
          <mxGeometry relative="1" as="geometry" />
        </mxCell>
        <mxCell id="j8Nd66jY_dgEr8elScfE-4" value="CI检查" style="whiteSpace=wrap;html=1;rounded=1;" vertex="1" parent="1">
          <mxGeometry x="410" y="265" width="120" height="60" as="geometry" />
        </mxCell>
        <mxCell id="j8Nd66jY_dgEr8elScfE-9" value="" style="edgeStyle=orthogonalEdgeStyle;rounded=0;orthogonalLoop=1;jettySize=auto;html=1;exitX=0.5;exitY=1;exitDx=0;exitDy=0;entryX=0.5;entryY=0;entryDx=0;entryDy=0;" edge="1" parent="1" source="j8Nd66jY_dgEr8elScfE-6" target="j8Nd66jY_dgEr8elScfE-8">
          <mxGeometry relative="1" as="geometry">
            <mxPoint x="310" y="525" as="targetPoint" />
            <Array as="points">
              <mxPoint x="150" y="435" />
              <mxPoint x="310" y="435" />
            </Array>
          </mxGeometry>
        </mxCell>
        <mxCell id="j8Nd66jY_dgEr8elScfE-6" value="Dummy" style="whiteSpace=wrap;html=1;rounded=1;" vertex="1" parent="1">
          <mxGeometry x="90" y="265" width="120" height="60" as="geometry" />
        </mxCell>
        <mxCell id="j8Nd66jY_dgEr8elScfE-8" value="Gitlab Pipeline 成功" style="rounded=1;whiteSpace=wrap;html=1;" vertex="1" parent="1">
          <mxGeometry x="250" y="525" width="120" height="60" as="geometry" />
        </mxCell>
        <mxCell id="j8Nd66jY_dgEr8elScfE-13" style="edgeStyle=orthogonalEdgeStyle;rounded=0;orthogonalLoop=1;jettySize=auto;html=1;exitX=0;exitY=0.5;exitDx=0;exitDy=0;" edge="1" parent="1" source="j8Nd66jY_dgEr8elScfE-10">
          <mxGeometry relative="1" as="geometry">
            <mxPoint x="310" y="525" as="targetPoint" />
          </mxGeometry>
        </mxCell>
        <mxCell id="j8Nd66jY_dgEr8elScfE-16" value="Y" style="edgeLabel;html=1;align=center;verticalAlign=middle;resizable=0;points=[];" vertex="1" connectable="0" parent="j8Nd66jY_dgEr8elScfE-13">
          <mxGeometry x="-0.4845" relative="1" as="geometry">
            <mxPoint as="offset" />
          </mxGeometry>
        </mxCell>
        <mxCell id="j8Nd66jY_dgEr8elScfE-18" value="" style="edgeStyle=orthogonalEdgeStyle;rounded=0;orthogonalLoop=1;jettySize=auto;html=1;" edge="1" parent="1" source="j8Nd66jY_dgEr8elScfE-10" target="j8Nd66jY_dgEr8elScfE-17">
          <mxGeometry relative="1" as="geometry" />
        </mxCell>
        <mxCell id="j8Nd66jY_dgEr8elScfE-10" value="CI成功" style="rhombus;whiteSpace=wrap;html=1;rounded=1;" vertex="1" parent="1">
          <mxGeometry x="430" y="395" width="80" height="80" as="geometry" />
        </mxCell>
        <mxCell id="j8Nd66jY_dgEr8elScfE-20" value="" style="edgeStyle=orthogonalEdgeStyle;rounded=0;orthogonalLoop=1;jettySize=auto;html=1;" edge="1" parent="1" source="j8Nd66jY_dgEr8elScfE-17" target="j8Nd66jY_dgEr8elScfE-19">
          <mxGeometry relative="1" as="geometry" />
        </mxCell>
        <mxCell id="j8Nd66jY_dgEr8elScfE-17" value="Close MR" style="whiteSpace=wrap;html=1;rounded=1;" vertex="1" parent="1">
          <mxGeometry x="570" y="405" width="120" height="60" as="geometry" />
        </mxCell>
        <mxCell id="j8Nd66jY_dgEr8elScfE-21" style="edgeStyle=orthogonalEdgeStyle;rounded=0;orthogonalLoop=1;jettySize=auto;html=1;entryX=1;entryY=0.5;entryDx=0;entryDy=0;exitX=0.5;exitY=0;exitDx=0;exitDy=0;" edge="1" parent="1" source="j8Nd66jY_dgEr8elScfE-19" target="j8Nd66jY_dgEr8elScfE-1">
          <mxGeometry relative="1" as="geometry" />
        </mxCell>
        <mxCell id="j8Nd66jY_dgEr8elScfE-19" value="修改" style="whiteSpace=wrap;html=1;rounded=1;" vertex="1" parent="1">
          <mxGeometry x="570" y="265" width="120" height="60" as="geometry" />
        </mxCell>
      </root>
    </mxGraphModel>
  </diagram>
</mxfile>
